{"buffers":[{"uri":"icon.bin","byteLength":36480}],"asset":{"version":"2.0","generator":"gltfpack 0.18"},"extensionsUsed":["KHR_mesh_quantization"],"extensionsRequired":["KHR_mesh_quantization"],"bufferViews":[{"buffer":0,"byteOffset":0,"byteLength":14672,"byteStride":8,"target":34962},{"buffer":0,"byteOffset":14672,"byteLength":7336,"byteStride":4,"target":34962},{"buffer":0,"byteOffset":22008,"byteLength":14472,"target":34963}],"accessors":[{"bufferView":0,"byteOffset":0,"componentType":5123,"count":1834,"type":"VEC3","min":[0,0,0],"max":[16383,2748,11862]},{"bufferView":1,"byteOffset":0,"componentType":5120,"count":1834,"type":"VEC3","normalized":true},{"bufferView":2,"byteOffset":0,"componentType":5123,"count":7236,"type":"SCALAR"}],"materials":[{"name":"Material.007","pbrMetallicRoughness":{"baseColorFactor":[0.5,0.5,0.5,1],"metallicFactor":0}}],"meshes":[{"primitives":[{"attributes":{"POSITION":0,"NORMAL":1},"indices":2,"material":0}]}],"nodes":[{"mesh":0,"translation":[-1.22643495,-0.196321994,-0.84761399],"scale":[0.000142860648,0.000142860648,0.000142860648]}],"scenes":[{"nodes":[0]}],"scene":0}